<svg xmlns="http://www.w3.org/2000/svg" viewBox="0 0 514.11 244.1"><defs><style>.cls-1{font-size:63px;stroke:#999;stroke-miterlimit:10;font-family:Candara-Bold, Candara;font-weight:700;}.cls-2,.cls-3,.cls-4{fill-rule:evenodd;}.cls-3{fill:#fefefe;}.cls-4{fill:#8adaff;}</style></defs><title>doc-app3</title><g id="Layer_2" data-name="Layer 2"><g id="_64" data-name="64"><text class="cls-1" transform="translate(170.11 226.09)">D O C - A P P </text><path class="cls-2" d="M155.61,134.93c13.58-1.43,26.79-8.57,38.2-21.06a8,8,0,0,0,1.79-6.78C211,88.53,220.22,63.18,220.22,43.55,220.22,13.21,206,10,181.68,5V4.64A9.45,9.45,0,0,0,173.47,0a8.78,8.78,0,0,0-8.93,8.57,8.77,8.77,0,0,0,8.93,8.56A7.27,7.27,0,0,0,178.83,15l.34.36c23.57,5,29.64,6.07,29.64,28.2,0,17.14-8.56,40.33-22.13,57.12a8.42,8.42,0,0,0-6.08,2.49c-6.77,7.5-17.83,16.42-30.69,16.42-13.21,0-23.91-8.92-30.7-16.06a8.85,8.85,0,0,0-6.08-2.85c-13.55-16.79-22.47-40-22.47-57.12,0-22.13,6.41-23.2,30-28.2V15a8.07,8.07,0,0,0,5.7,2.14,8.76,8.76,0,0,0,8.93-8.56A8.77,8.77,0,0,0,126.34,0c-3.91,0-6.76,1.78-8.21,4.64h-.34C93.88,10,79.24,12.85,79.24,43.55c0,19.63,9.27,45,25,63.89a7.28,7.28,0,0,0,1.79,6.43c11.42,12.14,24.28,19.28,37.49,21.06l-.37,38.54c0,26.42-23.2,47.84-51.41,47.84s-51-21.42-51-47.84v-33.9c16.43-2.5,28.92-15.35,28.92-31.41C69.6,90.31,53.89,76,34.61,76,15.69,76,0,90.31,0,108.16c0,16.06,12.84,28.91,28.89,31.41v33.9c0,32.14,28.22,58.19,62.82,58.19,35,0,63.18-26,63.18-58.19V134.93Z"/><path class="cls-3" d="M34.61,129.58h0c12.85,0,23.21-9.64,23.21-21.42,0-12.14-10.36-21.42-23.21-21.42-12.5,0-22.85,9.28-22.85,21.42,0,11.78,10.35,21.42,22.85,21.42Z"/><path class="cls-4" d="M34.26,92.1h0C43.53,92.1,51,99.23,51,108.16a16.69,16.69,0,0,1-16.77,16.42,16.45,16.45,0,0,1-16.77-16.42c0-8.93,7.13-16.06,16.77-16.06Z"/></g></g></svg>