<svg xmlns="http://www.w3.org/2000/svg" viewBox="0 0 344.5 341.1"><defs><style>.cls-1{font-size:63px;fill:#999;stroke:#999;stroke-miterlimit:10;font-family:Candara-Bold, Candara;font-weight:700;}.cls-2{fill:#fff;}.cls-2,.cls-3,.cls-4{fill-rule:evenodd;}.cls-3{fill:#fefefe;}.cls-4{fill:#8adaff;}</style></defs><title>doc-app2</title><g id="Layer_2" data-name="Layer 2"><g id="_64" data-name="64"><text class="cls-1" transform="translate(0.5 323.09)">D O C - A P P </text><path class="cls-2" d="M218,134.93c13.58-1.43,26.79-8.57,38.2-21.06a8,8,0,0,0,1.79-6.78c15.35-18.56,24.62-43.91,24.62-63.54C282.61,13.21,268.34,10,244.07,5V4.64A9.45,9.45,0,0,0,235.86,0a8.78,8.78,0,0,0-8.93,8.57,8.77,8.77,0,0,0,8.93,8.56A7.27,7.27,0,0,0,241.22,15l.34.36c23.56,5,29.64,6.07,29.64,28.2,0,17.14-8.56,40.33-22.13,57.12a8.42,8.42,0,0,0-6.08,2.49c-6.77,7.5-17.83,16.42-30.7,16.42-13.2,0-23.9-8.92-30.69-16.06a8.87,8.87,0,0,0-6.08-2.85C162,83.88,153,60.69,153,43.55c0-22.13,6.42-23.2,30-28.2V15a8.1,8.1,0,0,0,5.71,2.14,8.77,8.77,0,0,0,8.93-8.56A8.78,8.78,0,0,0,188.73,0c-3.91,0-6.76,1.78-8.21,4.64h-.35c-23.9,5.36-38.54,8.21-38.54,38.91,0,19.63,9.27,45,25,63.89a7.28,7.28,0,0,0,1.79,6.43c11.41,12.14,24.28,19.28,37.49,21.06l-.38,38.54c0,26.42-23.19,47.84-51.4,47.84s-51-21.42-51-47.84v-33.9c16.43-2.5,28.92-15.35,28.92-31.41C132,90.31,116.28,76,97,76c-18.91,0-34.6,14.27-34.6,32.12,0,16.06,12.84,28.91,28.89,31.41v33.9c0,32.14,28.22,58.19,62.82,58.19,35,0,63.18-26,63.18-58.19V134.93Z"/><path class="cls-3" d="M97,129.58h0c12.86,0,23.22-9.64,23.22-21.42C120.21,96,109.85,86.74,97,86.74c-12.49,0-22.84,9.28-22.84,21.42,0,11.78,10.35,21.42,22.84,21.42Z"/><path class="cls-4" d="M96.65,92.1h0c9.27,0,16.77,7.13,16.77,16.06a16.69,16.69,0,0,1-16.77,16.42,16.45,16.45,0,0,1-16.77-16.42c0-8.93,7.13-16.06,16.77-16.06Z"/></g></g></svg>